<svg width="25" height="24" viewBox="0 0 25 24" fill="none" xmlns="http://www.w3.org/2000/svg">
<path d="M12.5001 12.096C13.5101 12.096 14.3289 11.2686 14.3289 10.248C14.3289 9.22738 13.5101 8.4 12.5001 8.4C11.49 8.4 10.6713 9.22738 10.6713 10.248C10.6713 11.2686 11.49 12.096 12.5001 12.096Z" fill="#D7DAE0"/>
<path d="M13.4216 14.5968L13.4024 14.6064C13.2776 14.664 13.2392 14.8224 13.316 14.952L14.2184 16.5264C14.2952 16.6608 14.4536 16.7136 14.5784 16.6608L14.708 16.5936C14.66 16.5456 14.6168 16.4928 14.5784 16.4304L13.4216 14.5968Z" fill="#D7DAE0"/>
<path d="M17.0601 15.096L16.0953 13.5072C16.0185 13.3728 15.8601 13.32 15.7353 13.3728L14.9385 13.7952L15.9129 15.3312C16.0137 15.4992 16.0713 15.696 16.0665 15.9024L16.9833 15.4368C17.0985 15.3888 17.1369 15.2304 17.0601 15.096Z" fill="#D7DAE0"/>
<path d="M20.0169 6.9408C19.6425 6.792 19.2489 6.6576 18.8361 6.5376C18.9369 6.1152 19.0185 5.7024 19.0809 5.2992C19.4265 3.0096 19.0137 1.3968 17.9145 0.758399C16.8153 0.119999 15.2265 0.561599 13.4361 2.0112C13.1241 2.2656 12.8121 2.544 12.4953 2.8464C12.1833 2.544 11.8713 2.2656 11.5545 2.0112C9.76406 0.566399 8.17526 0.119999 7.07606 0.758399C5.97686 1.3968 5.56406 3.0096 5.90966 5.2992C5.97206 5.6976 6.05366 6.1104 6.15446 6.5328C5.74166 6.6528 5.34326 6.792 4.96886 6.936C2.83286 7.7808 1.65686 8.9472 1.65686 10.2288C1.65686 11.5104 2.83286 12.6768 4.96886 13.5216C5.34326 13.6704 5.73686 13.8048 6.15446 13.9248C6.05366 14.3472 5.97206 14.76 5.90966 15.1584C5.56406 17.448 5.97686 19.0608 7.07606 19.6992C7.40246 19.8912 7.77686 19.9824 8.18006 19.9824C8.82806 19.9824 9.57206 19.7424 10.3737 19.272L10.3353 18.3648V18.3552C10.3353 18.3504 10.3353 18.3408 10.3353 18.3312C9.14966 19.1232 8.13206 19.368 7.47926 18.9888C6.70166 18.5376 6.42326 17.184 6.71126 15.2784C6.76886 14.9088 6.84566 14.5248 6.93686 14.1312C7.75766 14.3328 8.64086 14.4864 9.56726 14.5872C9.77366 14.1936 9.97526 13.7952 10.1577 13.4544C9.86486 13.0128 9.58646 12.552 9.31286 12.0768C8.96246 11.4624 8.64086 10.8432 8.34806 10.224C8.64086 9.6048 8.96246 8.9856 9.31286 8.3712C9.66326 7.7568 10.0377 7.1616 10.4169 6.6C11.0889 6.5472 11.7801 6.5184 12.4857 6.5184C13.1913 6.5184 13.8825 6.5472 14.5593 6.6C14.9433 7.1616 15.3129 7.752 15.6633 8.3712C16.0137 8.9856 16.3401 9.6096 16.6281 10.224C16.3401 10.8384 16.0137 11.4576 15.6633 12.0768C15.4089 12.5232 15.1449 12.9504 14.8761 13.368C14.8809 13.3728 14.8809 13.3776 14.8857 13.3824L15.5529 13.032L15.5625 13.0272C15.6441 12.9888 15.7305 12.9744 15.8217 12.9744C15.9033 12.9744 15.9849 12.9888 16.0569 13.0176C16.1625 12.8448 16.2681 12.6672 16.3689 12.4896C16.6137 12.0624 16.8441 11.6304 17.0601 11.1984C17.3673 11.928 17.6217 12.648 17.8281 13.3392C17.4249 13.4352 17.0073 13.5216 16.5753 13.5984L17.0313 14.3472C17.3769 14.2848 17.7129 14.2128 18.0393 14.1312C18.1353 14.5248 18.2121 14.9088 18.2649 15.2784C18.5529 17.184 18.2697 18.5328 17.4969 18.9888C16.8441 19.368 15.8265 19.128 14.6409 18.3312C14.6409 18.3408 14.6409 18.3504 14.6409 18.3552V18.3696L14.6025 19.2672C15.4041 19.7376 16.1481 19.9776 16.7961 19.9776C17.2041 19.9776 17.5737 19.8816 17.9001 19.6944C18.9993 19.056 19.4121 17.4432 19.0665 15.1536C19.0041 14.7552 18.9225 14.3424 18.8217 13.9152C19.2345 13.7952 19.6329 13.6608 20.0025 13.512C22.1385 12.6672 23.3145 11.5008 23.3145 10.2192C23.3289 8.952 22.1529 7.7808 20.0169 6.9408ZM6.38006 13.1328C5.99606 13.0176 5.62646 12.8928 5.27606 12.7536C3.50006 12.0528 2.48246 11.1312 2.48246 10.224C2.48246 9.3168 3.50006 8.3952 5.27606 7.6944C5.62166 7.5552 5.99126 7.4304 6.37526 7.32C6.64886 8.256 7.01846 9.2352 7.46486 10.224C7.01846 11.2176 6.65366 12.1968 6.38006 13.1328ZM8.62166 12.4896C8.86646 12.9168 9.12086 13.3392 9.38486 13.7424C8.60726 13.6464 7.85846 13.512 7.16246 13.344C7.36406 12.648 7.62326 11.928 7.93046 11.1984C8.14646 11.6304 8.37686 12.0624 8.62166 12.4896ZM8.62166 7.968C8.37686 8.4 8.14646 8.832 7.92566 9.264C7.61846 8.5344 7.35926 7.8144 7.15766 7.1184C7.85846 6.9504 8.60246 6.816 9.38486 6.7152C9.12566 7.1184 8.87126 7.5408 8.62166 7.968ZM9.98486 5.8224C8.91446 5.9232 7.89206 6.096 6.94646 6.3216C6.85046 5.928 6.77366 5.544 6.72086 5.1744C6.43286 3.2688 6.71606 1.92 7.48886 1.464C8.26646 1.0128 9.56246 1.44 11.0553 2.6448C11.3481 2.88 11.6361 3.1392 11.9289 3.4176C11.2617 4.1328 10.6089 4.9392 9.98486 5.8224ZM12.5001 5.7072C12.0105 5.7072 11.5257 5.7216 11.0457 5.7456C11.5209 5.112 12.0057 4.5264 12.5001 4.0032C12.9945 4.5312 13.4793 5.112 13.9545 5.7456C13.4793 5.7216 12.9897 5.7072 12.5001 5.7072ZM13.0761 3.4224C13.3689 3.144 13.6569 2.8848 13.9497 2.6496C15.0489 1.7616 16.0473 1.2912 16.8057 1.2912C17.0745 1.2912 17.3097 1.3488 17.5113 1.4688C18.2889 1.92 18.5673 3.2736 18.2793 5.1792C18.2217 5.5488 18.1449 5.9328 18.0537 6.3264C17.1129 6.096 16.0905 5.928 15.0201 5.8272C14.3961 4.9392 13.7385 4.1328 13.0761 3.4224ZM16.3785 7.968C16.1337 7.5408 15.8793 7.1184 15.6153 6.7152C16.3977 6.8112 17.1417 6.9456 17.8425 7.1184C17.6361 7.8144 17.3817 8.5344 17.0745 9.264C16.8585 8.832 16.6281 8.4 16.3785 7.968ZM19.7241 12.7584C19.3785 12.8928 19.0089 13.0224 18.6249 13.1328C18.3513 12.1968 17.9865 11.2176 17.5353 10.2288C17.9817 9.24 18.3513 8.2608 18.6249 7.3248C19.0089 7.44 19.3737 7.5648 19.7193 7.6992C21.4953 8.4 22.5129 9.3216 22.5129 10.2288C22.5129 11.136 21.5001 12.0576 19.7241 12.7584Z" fill="#D7DAE0"/>
<path d="M14.3288 13.1712C13.9592 12.5232 13.3448 12.4128 12.932 12.4128H12.0776C11.828 12.4128 11.1368 12.4608 10.8776 12.9312C10.3352 13.92 8.79443 16.944 8.79443 16.944C8.64083 17.2464 8.75603 17.6304 9.05843 17.7888C9.35603 17.9472 9.74003 17.8272 9.89363 17.5248L10.6808 16.0128V17.1312C10.6808 17.472 10.724 18.2448 10.724 18.3648L10.9112 22.9008C10.9112 23.2464 11.1896 23.5296 11.5352 23.5296C11.876 23.5296 12.1592 23.2464 12.1592 22.9008V18.5424H12.8456V22.896C12.8504 23.2416 13.124 23.5248 13.4696 23.5248C13.8152 23.5248 14.0936 23.2416 14.0936 22.896L14.2808 18.36C14.2808 18.24 14.3288 17.4672 14.3288 17.1264V16.7856C14.2328 16.752 14.1464 16.68 14.0984 16.5936L14.0936 16.5888L13.1912 15.0144C13.1432 14.928 13.1288 14.8272 13.1528 14.7312C13.1768 14.6304 13.244 14.5488 13.3448 14.5056L13.4888 14.4288L14.7416 16.3824C14.9576 16.7232 15.38 16.8 15.6728 16.5504C15.9704 16.3056 16.0328 15.8304 15.8216 15.4992C15.8168 15.4944 14.6696 13.7664 14.3288 13.1712Z" fill="#D7DAE0"/>
</svg>
